<!DOCTYPE svg PUBLIC "-//W3C//DTD SVG 1.1//EN" "http://www.w3.org/Graphics/SVG/1.1/DTD/svg11.dtd">
<!-- Uploaded to: SVG Repo, www.svgrepo.com, Transformed by: SVG Repo Mixer Tools -->
<svg fill="#8f8f8f" height="256px" width="256px" version="1.1" id="Layer_1" xmlns="http://www.w3.org/2000/svg" xmlns:xlink="http://www.w3.org/1999/xlink" viewBox="-151.41 -151.41 605.64 605.64" xml:space="preserve" stroke="#8f8f8f" transform="rotate(0)">
<g id="SVGRepo_bgCarrier" stroke-width="0"/>
<g id="SVGRepo_tracerCarrier" stroke-linecap="round" stroke-linejoin="round" stroke="#CCCCCC" stroke-width="0.605632"/>
<g id="SVGRepo_iconCarrier"> <path id="XMLID_6_" d="M298.423,152.996c-5.857-5.858-15.354-5.858-21.213,0l-35.137,35.136 c-5.871-59.78-50.15-111.403-112.001-123.706c-45.526-9.055-92.479,5.005-125.596,37.612c-5.903,5.813-5.977,15.31-0.165,21.213 c5.813,5.903,15.31,5.977,21.212,0.164c26.029-25.628,62.923-36.679,98.695-29.565c48.865,9.72,83.772,50.677,88.07,97.978 l-38.835-38.835c-5.857-5.857-15.355-5.858-21.213,0.001c-5.858,5.858-5.858,15.355,0,21.213l62.485,62.485 c2.929,2.929,6.768,4.393,10.606,4.393s7.678-1.464,10.607-4.393l62.483-62.482C304.281,168.352,304.281,158.854,298.423,152.996z"/> </g>
</svg>