<?xml version="1.0" encoding="UTF-8" standalone="no" ?>
<!DOCTYPE svg PUBLIC "-//W3C//DTD SVG 1.1//EN" "http://www.w3.org/Graphics/SVG/1.1/DTD/svg11.dtd">


<svg xmlns="http://www.w3.org/2000/svg" xmlns:xlink="http://www.w3.org/1999/xlink" version="1.1" width="1080" height="1080" viewBox="0 0 1080 1080" xml:space="preserve">

<defs>
</defs>
<g transform="matrix(1 0 0 1 540 540)" id="cce9c600-3372-4fca-bf23-c6522c68438c"  >
<rect style="stroke: none; stroke-width: 1; stroke-dasharray: none; stroke-linecap: butt; stroke-dashoffset: 0; stroke-linejoin: miter; stroke-miterlimit: 4; fill: rgb(255,255,255); fill-rule: nonzero; opacity: 1; visibility: hidden;" vector-effect="non-scaling-stroke"  x="-540" y="-540" rx="0" ry="0" width="1080" height="1080" />
</g>
<g transform="matrix(1 0 0 1 540 540)" id="7f15baed-3e80-42e3-8f40-7027b1512094"  >
</g>
<g transform="matrix(NaN NaN NaN NaN 0 0)"  >
<g style=""   >
</g>
</g>
<g transform="matrix(NaN NaN NaN NaN 0 0)"  >
<g style=""   >
		<g transform="matrix(1 0 0 1 51.12 -2.95)"  >
<path style="stroke: none; stroke-width: 1; stroke-dasharray: none; stroke-linecap: butt; stroke-dashoffset: 0; stroke-linejoin: miter; stroke-miterlimit: 4; fill: rgb(0,0,0); fill-rule: nonzero; opacity: 1;" vector-effect="non-scaling-stroke"  transform=" translate(-231.78, -32.09)" d="M 114.913 33.2763 L 114.913 62.040499999999994 L 103.34299999999999 62.040499999999994 L 103.34299999999999 12.9496 L 114.40199999999999 12.9496 L 114.40199999999999 21.2912 L 114.97699999999999 21.2912 C 116.106 18.5427 117.907 16.3587 120.37799999999999 14.7394 C 122.87099999999998 13.1201 125.94999999999999 12.3104 129.61499999999998 12.3104 C 133.003 12.3104 135.95399999999998 13.034799999999999 138.468 14.483699999999999 C 141.003 15.932599999999999 142.964 18.031299999999998 144.34799999999998 20.779899999999998 C 145.755 23.528499999999998 146.44699999999997 26.863 146.426 30.7834 L 146.426 62.0405 L 134.856 62.0405 L 134.856 32.5732 C 134.856 29.2919 134.004 26.7245 132.299 24.8708 C 130.616 23.0171 128.28300000000002 22.0902 125.30000000000001 22.0902 C 123.27600000000001 22.0902 121.47600000000001 22.5377 119.89900000000002 23.4326 C 118.34300000000002 24.3062 117.11800000000001 25.573900000000002 116.22300000000001 27.2358 C 115.35000000000001 28.8978 114.91300000000001 30.9113 114.91300000000001 33.2763 Z M 176.32 62.9993 C 171.398 62.9993 167.148 61.9766 163.56799999999998 59.9312 C 160.01 57.864399999999996 157.272 54.9454 155.35399999999998 51.174 C 153.43699999999998 47.3814 152.47799999999998 42.917699999999996 152.47799999999998 37.7827 C 152.47799999999998 32.733 153.43699999999998 28.301199999999998 155.35399999999998 24.487299999999998 C 157.29299999999998 20.651999999999997 159.999 17.669099999999997 163.47199999999998 15.538399999999998 C 166.945 13.386399999999998 171.02499999999998 12.310399999999998 175.71299999999997 12.310399999999998 C 178.73899999999998 12.310399999999998 181.59399999999997 12.800499999999998 184.27799999999996 13.780599999999998 C 186.98399999999995 14.739399999999998 189.37099999999995 16.2309 191.43699999999995 18.255 C 193.52499999999995 20.2792 195.16599999999997 22.8573 196.35899999999995 25.9894 C 197.55199999999996 29.1002 198.14899999999994 32.8076 198.14899999999994 37.1115 L 198.14899999999994 40.6591 L 157.91099999999994 40.6591 L 157.91099999999994 32.860800000000005 L 187.05899999999994 32.860800000000005 C 187.03799999999995 30.644900000000003 186.55799999999994 28.674000000000007 185.62099999999995 26.948200000000003 C 184.68299999999996 25.201000000000004 183.37299999999996 23.826700000000002 181.68999999999994 22.825300000000006 C 180.02799999999993 21.823900000000005 178.08899999999994 21.323200000000007 175.87299999999993 21.323200000000007 C 173.50799999999992 21.323200000000007 171.42999999999992 21.898500000000006 169.64099999999993 23.049000000000007 C 167.85099999999994 24.178300000000007 166.45499999999993 25.669800000000006 165.45399999999992 27.523500000000006 C 164.47399999999993 29.355900000000005 163.97299999999993 31.369400000000006 163.9519999999999 33.56400000000001 L 163.9519999999999 40.371500000000005 C 163.9519999999999 43.226600000000005 164.4739999999999 45.6769 165.51799999999992 47.722300000000004 C 166.56199999999993 49.746500000000005 168.0209999999999 51.3019 169.8959999999999 52.38850000000001 C 171.7709999999999 53.453900000000004 173.9659999999999 53.98650000000001 176.4799999999999 53.98650000000001 C 178.1629999999999 53.98650000000001 179.6869999999999 53.75220000000001 181.0499999999999 53.28340000000001 C 182.4139999999999 52.793400000000005 183.5959999999999 52.079600000000006 184.5979999999999 51.142100000000006 C 185.5989999999999 50.204600000000006 186.3559999999999 49.043400000000005 186.8669999999999 47.65840000000001 L 197.6699999999999 48.87290000000001 C 196.98799999999991 51.72800000000001 195.6879999999999 54.22090000000001 193.7699999999999 56.351600000000005 C 191.8739999999999 58.461000000000006 189.4449999999999 60.101600000000005 186.4839999999999 61.273500000000006 C 183.5219999999999 62.4241 180.1339999999999 62.999300000000005 176.3199999999999 62.999300000000005 Z M 211.09699999999998 12.949599999999997 L 221.00499999999997 31.071099999999998 L 231.07199999999997 12.949599999999997 L 243.313 12.949599999999997 L 228.515 37.495099999999994 L 243.569 62.040499999999994 L 231.392 62.040499999999994 L 221.005 44.366499999999995 L 210.714 62.040499999999994 L 198.441 62.040499999999994 L 213.398 37.495099999999994 L 198.82399999999998 12.949599999999993 L 211.09699999999998 12.949599999999993 Z M 274.97499999999997 12.949599999999997 L 274.97499999999997 21.8985 L 246.75399999999996 21.8985 L 246.75399999999996 12.949599999999998 L 274.97499999999997 12.949599999999998 Z M 253.722 1.18825 L 265.291 1.18825 L 265.291 47.2749 C 265.291 48.8303 265.526 50.023500000000006 265.995 50.854400000000005 C 266.485 51.664100000000005 267.124 52.21810000000001 267.912 52.516400000000004 C 268.69999999999993 52.8147 269.57399999999996 52.963800000000006 270.53299999999996 52.963800000000006 C 271.25699999999995 52.963800000000006 271.91799999999995 52.91060000000001 272.51399999999995 52.80400000000001 C 273.13199999999995 52.69750000000001 273.60099999999994 52.60160000000001 273.92099999999994 52.51640000000001 L 275.86999999999995 61.56110000000001 C 275.25199999999995 61.77420000000001 274.36799999999994 62.00860000000001 273.21799999999996 62.26420000000001 C 272.08799999999997 62.51990000000001 270.703 62.66910000000001 269.063 62.71170000000001 C 266.16499999999996 62.79690000000001 263.555 62.36010000000001 261.23199999999997 61.401300000000006 C 258.90999999999997 60.421200000000006 257.06699999999995 58.90840000000001 255.70299999999997 56.86300000000001 C 254.36099999999996 54.81750000000001 253.7 52.26070000000001 253.72199999999998 49.19250000000001 L 253.72199999999998 1.18825 Z M 282.851 62.040499999999994 L 282.851 12.9496 L 294.069 12.9496 L 294.069 21.1314 L 294.581 21.1314 C 295.476 18.2976 297.01 16.1137 299.183 14.5796 C 301.356 13.024199999999999 303.86 12.2465 306.694 12.2465 C 308.01500000000004 12.2465 309.22900000000004 12.4063 310.337 12.7259 C 311.445 13.045499999999999 312.425 13.482299999999999 313.277 14.036299999999999 L 309.698 23.624299999999998 C 309.08 23.325999999999997 308.39799999999997 23.081 307.652 22.8892 C 306.907 22.697499999999998 306.065 22.601599999999998 305.128 22.601599999999998 C 303.125 22.601599999999998 301.31399999999996 23.049 299.69399999999996 23.9439 C 298.07499999999993 24.8388 296.78599999999994 26.0853 295.82699999999994 27.6833 C 294.88999999999993 29.259999999999998 294.42099999999994 31.092399999999998 294.42099999999994 33.1804 L 294.42099999999994 62.040499999999994 L 282.85099999999994 62.040499999999994 Z M 334.073 62.903499999999994 C 330.217 62.903499999999994 326.765 61.912699999999994 323.71799999999996 59.9312 C 320.67099999999994 57.9496 318.26399999999995 55.0732 316.49499999999995 51.301899999999996 C 314.727 47.53059999999999 313.84299999999996 42.9496 313.84299999999996 37.559 C 313.84299999999996 32.1044 314.73699999999997 27.502199999999995 316.527 23.752199999999995 C 318.33799999999997 19.980899999999995 320.77799999999996 17.136399999999995 323.846 15.218799999999995 C 326.914 13.279899999999994 330.334 12.310399999999994 334.105 12.310399999999994 C 336.982 12.310399999999994 339.34700000000004 12.800499999999994 341.20000000000005 13.780599999999994 C 343.05400000000003 14.739399999999995 344.52400000000006 15.900599999999994 345.61100000000005 17.264199999999995 C 346.69800000000004 18.606599999999997 347.53900000000004 19.874299999999995 348.136 21.067499999999995 L 348.615 21.067499999999995 L 348.615 12.949599999999995 L 360.217 12.949599999999995 L 360.217 62.040499999999994 L 348.839 62.040499999999994 L 348.839 54.3062 L 348.136 54.3062 C 347.53900000000004 55.4993 346.67600000000004 56.7671 345.547 58.109399999999994 C 344.418 59.43039999999999 342.92600000000004 60.55969999999999 341.07300000000004 61.49719999999999 C 339.21900000000005 62.43469999999999 336.886 62.903499999999994 334.07300000000004 62.903499999999994 Z M 337.301 53.4113 C 339.752 53.4113 341.84 52.7508 343.566 51.4297 C 345.291 50.087399999999995 346.602 48.223099999999995 347.49699999999996 45.83669999999999 C 348.39199999999994 43.45029999999999 348.83899999999994 40.669799999999995 348.83899999999994 37.495099999999994 C 348.83899999999994 34.32039999999999 348.39199999999994 31.561099999999993 347.49699999999996 29.217399999999994 C 346.62299999999993 26.873599999999996 345.323 25.051899999999996 343.597 23.752199999999995 C 341.893 22.452499999999993 339.794 21.802599999999995 337.301 21.802599999999995 C 334.723 21.802599999999995 332.57099999999997 22.473799999999994 330.84499999999997 23.816099999999995 C 329.11899999999997 25.158399999999997 327.82 27.012099999999997 326.94599999999997 29.377199999999995 C 326.073 31.742199999999997 325.63599999999997 34.44819999999999 325.63599999999997 37.495099999999994 C 325.63599999999997 40.56329999999999 326.073 43.301199999999994 326.94599999999997 45.70889999999999 C 327.84099999999995 48.09519999999999 329.15099999999995 49.98089999999999 330.87699999999995 51.36579999999999 C 332.62399999999997 52.72939999999999 334.76599999999996 53.41129999999999 337.30099999999993 53.41129999999999 Z" stroke-linecap="round" />
</g>
		<g transform="matrix(1 0 0 1 -145.62 0)"  >
<path style="stroke: rgb(0,0,0); stroke-width: 1; stroke-dasharray: none; stroke-linecap: butt; stroke-dashoffset: 0; stroke-linejoin: miter; stroke-miterlimit: 4; fill: rgb(0,0,0); fill-rule: nonzero; opacity: 1;" vector-effect="non-scaling-stroke"  transform=" translate(-35.04, -35.04)" d="M 64.8833 1.81335 L 62.0369 4.65973 C 47.1274 19.5692 22.9543 19.5692 8.04485 4.65972 L 5.19848 1.81335 C 4.26369 0.87857 2.74811 0.87857 1.81333 1.81335 C 0.8785400000000001 2.74813 0.87855 4.26372 1.81333 5.1985 L 4.6597 8.04487 C 19.5692 22.9544 19.5692 47.1275 4.6597 62.037000000000006 L 1.81333 64.8833 C 0.8785400000000001 65.8181 0.8785400000000001 67.33370000000001 1.81333 68.2685 C 2.74811 69.2033 4.2637 69.2033 5.19848 68.2685 L 8.04485 65.4221 C 22.9544 50.5126 47.127399999999994 50.5126 62.0369 65.4221 L 64.8833 68.2685 C 65.8181 69.2033 67.33370000000001 69.2033 68.2685 68.2685 C 69.20320000000001 67.33370000000001 69.20320000000001 65.8181 68.2685 64.8833 L 65.4221 62.037000000000006 C 50.5126 47.127500000000005 50.5126 22.954400000000007 65.4221 8.044870000000003 L 68.2685 5.198500000000003 C 69.20320000000001 4.263720000000003 69.20320000000001 2.748130000000003 68.2685 1.813350000000003 C 67.33370000000001 0.8785700000000028 65.8181 0.8785700000000028 64.8833 1.813350000000003 Z" stroke-linecap="round" />
</g>
</g>
</g>
<g transform="matrix(1.44 0 0 1.44 434.84 413.37)"  >
<path style="stroke: rgb(0,0,0); stroke-width: 2; stroke-dasharray: none; stroke-linecap: butt; stroke-dashoffset: 0; stroke-linejoin: miter; stroke-miterlimit: 4; fill: rgb(0,0,0); fill-rule: nonzero; opacity: 1;" vector-effect="non-scaling-stroke"  transform=" translate(-35.04, -35.04)" d="M 64.8833 1.81335 L 62.0369 4.65973 C 47.1274 19.5692 22.9543 19.5692 8.04485 4.65972 L 5.19848 1.81335 C 4.26369 0.87857 2.74811 0.87857 1.81333 1.81335 C 0.8785400000000001 2.74813 0.87855 4.26372 1.81333 5.1985 L 4.6597 8.04487 C 19.5692 22.9544 19.5692 47.1275 4.6597 62.037000000000006 L 1.81333 64.8833 C 0.8785400000000001 65.8181 0.8785400000000001 67.33370000000001 1.81333 68.2685 C 2.74811 69.2033 4.2637 69.2033 5.19848 68.2685 L 8.04485 65.4221 C 22.9544 50.5126 47.127399999999994 50.5126 62.0369 65.4221 L 64.8833 68.2685 C 65.8181 69.2033 67.33370000000001 69.2033 68.2685 68.2685 C 69.20320000000001 67.33370000000001 69.20320000000001 65.8181 68.2685 64.8833 L 65.4221 62.037000000000006 C 50.5126 47.127500000000005 50.5126 22.954400000000007 65.4221 8.044870000000003 L 68.2685 5.198500000000003 C 69.20320000000001 4.263720000000003 69.20320000000001 2.748130000000003 68.2685 1.813350000000003 C 67.33370000000001 0.8785700000000028 65.8181 0.8785700000000028 64.8833 1.813350000000003 Z" stroke-linecap="round" />
</g>
<g transform="matrix(1 0 0 1 736.36 413.05)" style="" id="efdda5f0-2d13-41d1-9a13-477d4120c4f5"  >
		<text xml:space="preserve" font-family="Raleway" font-size="105" font-style="normal" font-weight="700" style="stroke: none; stroke-width: 1; stroke-dasharray: none; stroke-linecap: butt; stroke-dashoffset: 0; stroke-linejoin: miter; stroke-miterlimit: 4; fill: rgb(0,0,0); fill-rule: nonzero; opacity: 1; white-space: pre;" ><tspan x="-226.07" y="32.98" >Eldora UI</tspan></text>
</g>
</svg>