<svg xmlns="http://www.w3.org/2000/svg" width="94" height="22"><path fill="#E2E8F0" fill-rule="nonzero" d="M14.83 11.661c-.03-1.79.755-3.183 2.354-4.18-.902-1.291-2.232-2.017-3.99-2.179-.626-.058-1.426.088-2.4.44-1.046.382-1.635.572-1.766.572-.276 0-.806-.16-1.593-.484-.784-.322-1.453-.484-2.006-.484a5.028 5.028 0 0 0-2.595.76A5.472 5.472 0 0 0 .916 8.117C.305 9.175 0 10.436 0 11.903c0 1.32.225 2.64.675 3.96.422 1.262.96 2.37 1.614 3.322.58.865 1.092 1.496 1.526 1.892.626.616 1.265.91 1.92.88.421-.015.973-.169 1.657-.463a4.791 4.791 0 0 1 1.92-.417c.595 0 1.212.139 1.853.417.712.294 1.294.44 1.744.44.67-.028 1.294-.314 1.876-.857.203-.176.425-.418.665-.726.276-.359.542-.726.796-1.1.212-.323.412-.653.6-.99.201-.363.38-.738.534-1.122.072-.162.137-.326.196-.495.058-.169.116-.34.174-.517a4.855 4.855 0 0 1-1.46-.99c-.96-.938-1.446-2.097-1.46-3.476Zm15.812 3.922h-.106l-4.428-9.96H22.63v16.07h3.03V11.285h.142l3.7 8.265h2.126l3.69-8.265h.14v10.408h3.067V5.623H35.07l-4.429 9.96ZM12.081 3.521c.77-.954 1.156-1.98 1.156-3.081V.22c0-.074-.007-.147-.022-.22-.538.03-1.108.198-1.712.506-.603.308-1.1.697-1.494 1.166-.785.925-1.178 1.914-1.178 2.97v.209c0 .067.008.136.022.21 1.207.117 2.283-.397 3.228-1.54Zm61.868 2.102h3.406v16.07H73.95V5.623Zm13.695 2.554c2.02 0 3.09 1.531 3.09 3.18H94v-.342c0-3.108-2.408-5.698-6.38-5.698-4.252 0-6.79 2.755-6.79 7.453v1.813c0 4.696 2.514 7.417 6.779 7.417C91.685 22 94 19.374 94 16.454v-.353h-3.266c0 1.661-1.046 3.038-3.066 3.038-2.068 0-3.384-1.448-3.384-4.545v-1.812c0-3.086 1.328-4.605 3.36-4.605Zm-36.09 7.594c0 2.155-1.28 3.344-3.16 3.344-1.892 0-3.172-1.178-3.172-3.344V5.623H41.84v10.619c0 3.427 2.466 5.758 6.554 5.758 4.077 0 6.555-2.331 6.555-5.758V5.622h-3.394v10.149Zm14.666-3.437-2.432-.541c-1.433-.296-2.185-.92-2.185-1.85 0-1.235 1.022-2.013 2.667-2.013 1.856 0 2.784 1.048 2.866 2.179h3.172c-.035-2.838-2.443-4.816-6.026-4.816-3.395 0-6.074 1.755-6.074 4.91 0 2.731 1.88 4.002 4.136 4.486l2.408.553c1.62.365 2.443.895 2.443 1.989 0 1.249-1.01 2.097-2.901 2.097-2.033 0-3.102-1.06-3.195-2.25h-3.267C57.88 19.351 59.407 22 64.13 22c3.97 0 6.426-1.943 6.426-5.1-.001-2.919-1.987-4.06-4.336-4.566Z"/></svg>