<svg xmlns="http://www.w3.org/2000/svg" width="94" height="39"><path fill="#E2E8F0" fill-rule="nonzero" d="M47.287 4.256c.64.03 1.25.275 1.734.695.659.626.832 1.67.52 2.506-1.213 2.504-4.097 4.177-6.068 4.73-1.18.279-2.67.279-3.745-.139-.52.313-.96 1.325-1.596.905-.92-.721-.123-1.85-.654-2.65-.11-.164-.386-.177-.524-.446-.729-1.6.173-3.131 1.178-4.349 1.677-1.876 6.485-3.966 9.155-1.252Zm-5.583 1.252c-.936.174-1.994.583-2.566 1.252-.572.67-.936 1.323-.589 2.018 1.214-.904 1.803-2.157 3.156-2.922 0-.14.207-.244 0-.348Zm5.653.348c-2.393-.209-4.196 1.6-5.896 3.34-.104.278-.728.59-.242.904 2.289.208 4.473-.452 6.138-1.983.486-.452.831-1.044.59-1.67a1.228 1.228 0 0 0-.59-.59Zm20.735 10.367c1.11 2.714 2.046 6.992 0 9.602-.555.626-1.525 1.203-2.15.73-2.288-1.843-3.258-4.488-4.68-6.854-.208-.104-.208.175-.312.28-.52 2.4.45 5.53-1.179 7.409-.624.104-1.208-.218-1.422-.835-.798-2.47.034-5.045.242-7.514.486-1.253.694-2.714 1.769-3.653 1.734.695 2.566 2.644 3.57 4.07.73 1.079 1.318 2.296 2.15 3.27.728-.313.37-1.267.348-1.844-.279-2.26-.903-4.348-1.493-6.505-.033-.556-.345-1.496.243-1.844 1.563.696 2.22 2.331 2.914 3.688Zm-10.472-.835c0 .522-.416 1.174-.763 1.252-3.329.522-7.04.209-10.16 1.252-.104.383.347.453.59.557 2.669.417 5.478.522 8.08 1.183 1.374.35 1.872 1.983 1.976 3.34.064 1.07-.346 2.365-1.387 3.096-2.565 1.635-6.484 1.565-9.085.07-.994-.56-1.942-1.46-2.011-2.574.006-.884.382-1.58 1.006-1.913 2.497-1.01 5.583-.452 7.733.834.138.696-.613.659-.972.905-2.393 1.392-4.196-1.565-6.415-.487-.312.208-.538.79-.174.974 2.74 1.218 5.791.348 8.496-.417.312-.105.694-.418.728-.73-.104-1.114-1.352-1.357-2.15-1.67-2.358-.591-4.958-.591-7.49-.835-.485-.104-1.104-.443-1.248-.835-.277-.834-.277-1.983.347-2.678 3.224-2.853 8.113-2.61 12.205-1.844.278.102.59.207.694.52ZM42.467 16.71c.312 3.34.486 6.436.416 9.95-.069.45-.589.556-.936.73-.554.104-1.271-.014-1.49-.313-.798-1.288-.52-3.027-.59-4.592.104-2.47.07-5.149.763-7.445.133-.334.52-.626.832-.418.832.418.97 1.253 1.005 2.088Zm38.526-.487c.166.281.34.716 0 .904-1.56.696-3.676.383-5.48.591-.485.418-.866 1.113-.694 1.74.175.104.33.263.521.243 1.11.07 2.774-.522 3.503.522.178.31-.024 1.47-.52 1.496-1.353.175-3.577-.17-4.231.175-.832.556-.763 1.634-1.075 2.505.59.382 1.207-.01 1.906-.105 1.285-.209 2.706-.591 3.989-.313.242.452.59.94.346 1.496-2.186 1.74-5.005 3.522-8.01 2.261-1.127-.507-1.63-2.226-1.247-3.687.242-1.044 1.317-2.052.658-3.166-.104-.487.174-.904.59-1.008 1.144 0 .901-1.427 1.49-2.088-.658-.73-2.322-.696-2.148-2.157.797-.417 1.769-.278 2.669-.417 2.046-.418 4.334-.661 6.416-.418.415.084.97.904 1.317 1.426ZM31.475 8.291c3.2 2.624 7.351 7.097 6.831 12.246-.624 4.07-4.924 7.131-8.565 8.106-3.537 1.043-7.975.939-11.582.104-.243.661-.485 1.46-1.248 1.74-.485.173-1.11.07-1.491-.244-1.075-1.009-.208-2.957-1.769-3.583-3.051-1.287-6.346-3.827-7.906-6.958-.208-.626.035-1.252.416-1.739 2.393-1.913 5.41-2.678 8.427-3.27.173.07.104-.174.242-.243.174-2.088.243-4.21.902-6.089a.54.54 0 0 1 .763-.174c1.907 1.461 1.005 4.21 1.838 6.193 3.64.174 7.282.347 10.16 2.4.97.8 1.207 2.328.9 3.201-.305.872-1.316 1.496-2.253 1.565-.624 0-1.803.06-1.734-.417.07-.478 2.121-1.261 1.491-1.914-.905-.938-5.438-1.496-8.247-1.844-.346-.07-.664.035-.664.418-.07 2.643-.278 5.565.173 8.106.035.174.243.383.416.417 4.959.8 10.195.347 14.079-2.505 1.803-1.46 2.393-3.514 2.08-5.775-1.56-6.297-8.114-10.09-13.489-12.524A37.823 37.823 0 0 0 4.011 2.342c-.988.073-2.554.415-2.565.766-.012.35 1.774.24 1.56.904-.214.664-2.029.27-2.566.105-.538-.166-.486-.94-.347-1.427C1.446.29 5.22.096 6.924.012c9.432-.244 18.552 3.36 24.55 8.28Zm-16.991 9.324c-2.393.034-4.924.278-7.144 1.113-.45.173-1.005.66-.659 1.252.902 1.217 2.19 2.217 3.399 2.922 1.207.704 2.809 1.6 4.265 1.81.347-2.262.347-4.488.312-6.82-.14-.069 0-.208-.173-.277Zm71.674-3.166c-.104 3.026-2.913 4.905-2.913 7.931.104.105.174.244.312.175 2.255-2.47 4.473-5.984 7.768-7.027.868-.07 1.652.687 1.977 1.252 1.144 2.296.868 5.532-.728 7.62-1.646 2.048-4.508 4.104-7.767 3.756a44.733 44.733 0 0 0-2.81 10.506c-.277.73-.935.07-1.351-.07-2.809-2.226-.502-8.12-.312-8.872.19-.75.942-2.519 1.492-4-1.318-2.365-.486-5.219.588-7.41.832-1.462 1.978-2.923 3.33-4.036.172 0 .31.036.414.175Zm5.584 3.757c-.416-.07-.59.487-.936.592-1.594 1.809-3.19 3.618-3.988 5.775 1.076.139 1.977-.557 2.914-.94 1.594-1.009 2.6-2.678 2.496-4.591-.07-.314-.347-.558-.486-.836Z"/></svg>