<svg xmlns="http://www.w3.org/2000/svg" width="16" height="12">
  <g fill="none" fill-rule="nonzero">
    <circle cx="8" cy="6" r="3" fill="#6366F1"/>
    <path fill="#A5B4FC" d="M2 6c0-1.6.6-3.1 1.8-4.3.4-.4.4-1 0-1.4-.4-.4-1-.4-1.4 0C.9 1.8 0 3.8 0 6s.9 4.2 2.4 5.7c.2.2.5.3.7.3.3 0 .5-.1.7-.3.4-.4.4-1 0-1.4C2.6 9.1 2 7.6 2 6ZM13.6.3c-.4-.4-1-.4-1.4 0-.4.4-.4 1 0 1.4C13.4 2.9 14 4.4 14 6c0 1.6-.6 3.1-1.8 4.3-.4.4-.4 1 0 1.4.2.2.5.3.7.3.3 0 .5-.1.7-.3C15.1 10.2 16 8.2 16 6s-.9-4.2-2.4-5.7Z"/>
  </g>
</svg>
