<svg xmlns="http://www.w3.org/2000/svg" width="14" height="14">
  <g fill="none" fill-rule="nonzero">
    <path fill="#A5B4FC" d="M11 6a.75.75 0 0 1-.75-.75 1.5 1.5 0 0 0-1.5-1.5.75.75 0 0 1 0-1.5 1.5 1.5 0 0 0 1.5-1.5.75.75 0 1 1 1.5 0 1.5 1.5 0 0 0 1.5 1.5.75.75 0 1 1 0 1.5 1.5 1.5 0 0 0-1.5 1.5A.75.75 0 0 1 11 6Z"/>
    <path fill="#6366F1" d="M5 14a.833.833 0 0 1-.833-.833A3.333 3.333 0 0 0 .833 9.833a.833.833 0 1 1 0-1.666 3.333 3.333 0 0 0 3.334-3.334.833.833 0 1 1 1.666 0 3.333 3.333 0 0 0 3.334 3.334.833.833 0 1 1 0 1.666 3.333 3.333 0 0 0-3.334 3.334c0 .46-.373.833-.833.833Z"/>
  </g>
</svg>
