<svg xmlns="http://www.w3.org/2000/svg" width="16" height="16">
  <g fill="none" fill-rule="nonzero">
    <path fill="#A5B4FC" d="M14.14 9.334a2.5 2.5 0 0 0-3.522 3.194c-.845.63-1.87.97-2.924.971a4.979 4.979 0 0 1-1.113-.135 4.436 4.436 0 0 1-1.343 1.682 6.91 6.91 0 0 0 6.9-1.165 2.5 2.5 0 0 0 2-4.547h.002Z"/>
    <path fill="#6366F1" d="M10.125 1.937a2.5 2.5 0 1 0-.4 2.014 5.027 5.027 0 0 1 2.723 3.078c.148-.018.297-.028.446-.03a4.5 4.5 0 0 1 1.7.334 7.023 7.023 0 0 0-4.469-5.396Z"/>
    <path fill="#A5B4FC" d="M4.663 10.25a2.49 2.49 0 0 0-1.932-1.235 4.624 4.624 0 0 1-.037-.516 4.97 4.97 0 0 1 1.348-3.39 4.456 4.456 0 0 1-.788-2.017A6.989 6.989 0 0 0 .694 8.5c.004.391.04.781.11 1.166a2.5 2.5 0 1 0 3.86.584Z"/>
  </g>
</svg>
