<svg xmlns="http://www.w3.org/2000/svg" width="82" height="22"><path fill="#E2E8F0" fill-rule="nonzero" d="M11.675 17.155c-.786-1.5-1.709-3.016-3.508-3.016a2.47 2.47 0 0 0-1.003.195l-.611-1.186c.744-.62 1.948-1.111 3.496-1.111 2.407 0 3.642 1.124 4.623 2.559.582-1.225.859-2.88.859-4.93 0-5.12-1.652-7.749-5.51-7.749-3.803 0-5.446 2.63-5.446 7.75 0 5.092 1.643 7.694 5.445 7.694a6.05 6.05 0 0 0 1.655-.206Zm.943 1.786c-.847.221-1.72.334-2.598.337C4.957 19.278 0 15.36 0 9.666 0 3.917 4.957 0 10.02 0c5.148 0 10.058 3.889 10.058 9.666 0 3.214-1.547 5.825-3.795 7.513.726 1.055 1.474 1.756 2.515 1.756 1.137 0 1.595-.851 1.672-1.519h1.48c.086.89-.372 4.584-4.509 4.584-2.505 0-3.83-1.408-4.823-3.059Zm10.715-4.885V7.472c0-.75-.286-1.083-1.174-1.083h-.946v-1.75h6.18v9.334c0 1.573.878 2.267 2.216 2.267 1.098 0 2.196-.47 2.789-1.546V7.472c0-.75-.287-1.083-1.175-1.083H30.22v-1.75h6.238v9.777c0 .974.372 1.418 1.518 1.418h.201v1.805l-5.578.86v-1.86h-.115c-1.08 1.277-2.598 2.139-4.766 2.139-2.436 0-4.385-1.194-4.385-4.722m22.96 2.972c2.197 0 3.031-1.853 3.075-5.583.043-3.65-.878-5.416-3.076-5.416-1.92 0-3.123 1.767-3.123 5.416 0 3.731 1.184 5.583 3.123 5.583Zm0 1.75c-3.974 0-7.557-2.945-7.557-7.333 0-4.306 3.497-7.167 7.556-7.167 4.232 0 7.623 2.916 7.623 7.167 0 4.388-3.391 7.333-7.623 7.333Zm7.748-.278v-1.75h.602c1.49 0 1.634-.417 1.634-1.666V7.472c0-.75-.401-1.083-1.318-1.083h-.802v-1.75h5.663l.287 2.862h.115c.63-2.057 2.32-3.14 3.906-3.14 1.309 0 2.33.722 2.33 2.186 0 1.018-.505 2.102-1.919 2.102-1.27 0-1.518-.834-2.57-.834-.935 0-1.662.862-1.662 2.13v5.139c0 1.25.316 1.666 1.778 1.666h.83v1.75h-8.874Zm18.856-2.037c1.806 0 2.55-1.657 2.55-3.323v-2.223c-1.318 1.323-4.384 1.37-4.384 3.731 0 1.157.707 1.815 1.834 1.815Zm2.637-.01c-.746 1.39-2.275 2.325-4.414 2.325-2.483 0-4.088-1.279-4.088-3.528 0-4.527 6.505-3.324 8.415-6.323v-.325c0-2.305-.936-2.666-1.967-2.666-2.895 0-1.577 3.017-4.242 3.017-1.28 0-1.776-.749-1.776-1.591 0-1.704 2.101-3.084 6.047-3.084 3.733 0 6.027 1 6.027 4.602v5.75c0 .888.334 1.37 1.136 1.37a1.5 1.5 0 0 0 .85-.24L82 16.888c-.392.584-1.433 1.612-3.41 1.612-1.72 0-2.799-.778-2.942-2.046h-.114Z"/></svg>