<svg xmlns="http://www.w3.org/2000/svg" width="56" height="42"><path fill="#E2E8F0" fill-rule="nonzero" d="M48.207 24.118a11.532 11.532 0 0 0-5.075 1.182c-.525-1.04-1.05-1.949-1.137-2.627-.099-.788-.22-1.27-.099-2.21.12-.942.667-2.277.667-2.387-.01-.098-.12-.58-1.247-.59-1.126-.012-2.1.218-2.21.514-.109.295-.327.974-.47 1.674-.197 1.029-2.253 4.673-3.423 6.589-.383-.745-.711-1.401-.777-1.927-.098-.788-.219-1.27-.098-2.21.12-.942.667-2.277.667-2.386-.011-.099-.12-.58-1.247-.591-1.127-.011-2.1.219-2.21.514-.11.296-.23.996-.47 1.675-.23.678-2.964 6.763-3.675 8.35-.361.81-.679 1.456-.908 1.894-.23.438-.011.033-.033.076l-.306.58v.012c-.154.273-.318.536-.394.536-.055 0-.164-.734.022-1.74.404-2.113 1.389-5.407 1.378-5.527 0-.055.186-.635-.635-.93-.798-.296-1.082.196-1.148.196-.066 0-.12.175-.12.175s.886-3.71-1.696-3.71c-1.619 0-3.85 1.762-4.955 3.371-.7.383-2.188 1.193-3.763 2.058-.602.328-1.225.678-1.816.996l-.12-.132c-3.128-3.338-8.915-5.702-8.674-10.19.087-1.63.656-5.931 11.113-11.14 8.565-4.27 15.424-3.098 16.616-.493 1.695 3.72-3.664 10.638-12.568 11.634-3.391.383-5.174-.93-5.623-1.423-.47-.514-.536-.536-.71-.438-.285.153-.11.613 0 .887.262.69 1.356 1.915 3.215 2.528 1.63.536 5.612.832 10.425-1.029 5.392-2.09 9.604-7.891 8.368-12.74-1.258-4.935-9.44-6.555-17.174-3.808-4.605 1.642-9.593 4.203-13.18 7.563C.45 12.877-.229 16.358.056 17.803c.995 5.154 8.094 8.514 10.938 10.999-.142.076-.274.153-.394.219-1.422.7-6.836 3.535-8.193 6.534-1.531 3.392.24 5.833 1.422 6.162 3.654 1.017 7.395-.81 9.418-3.82 2.013-3.01 1.772-6.917.842-8.701l-.032-.066 1.115-.656c.722-.427 1.433-.821 2.057-1.16-.35.951-.602 2.079-.733 3.72-.153 1.927.634 4.422 1.673 5.407.46.427 1.007.438 1.346.438 1.203 0 1.75-.996 2.352-2.189a39.706 39.706 0 0 0 1.4-3.141s-.82 4.564 1.422 4.564c.82 0 1.64-1.062 2.012-1.609v.01s.022-.032.066-.109c.046-.067.09-.137.131-.207v-.022c.329-.57 1.061-1.872 2.155-4.028 1.411-2.78 2.768-6.26 2.768-6.26s.13.853.536 2.254c.24.832.765 1.74 1.17 2.627-.328.46-.525.723-.525.723l.01.01c-.262.35-.557.723-.863 1.095-1.116 1.335-2.45 2.857-2.625 3.294-.208.515-.164.898.24 1.204.296.22.82.263 1.378.22 1.007-.067 1.707-.318 2.057-.472a7.12 7.12 0 0 0 1.772-.93c1.094-.81 1.761-1.959 1.695-3.491-.032-.843-.306-1.675-.645-2.463.098-.142.197-.284.295-.437 1.729-2.529 3.063-5.309 3.063-5.309s.131.854.536 2.255c.208.711.624 1.489.996 2.255-1.62 1.324-2.637 2.856-2.987 3.863-.645 1.86-.142 2.704.81 2.9.426.088 1.039-.109 1.498-.306a6.789 6.789 0 0 0 1.893-.974c1.094-.81 2.144-1.937 2.089-3.459-.033-.7-.219-1.39-.47-2.046 1.378-.57 3.16-.898 5.425-.624 4.868.57 5.83 3.612 5.644 4.881-.186 1.27-1.203 1.97-1.542 2.19-.34.207-.448.284-.416.437.044.23.197.219.493.175.404-.066 2.56-1.04 2.647-3.382.13-3.01-2.724-6.293-7.789-6.26ZM10.667 36.78c-1.608 1.762-3.873 2.43-4.835 1.86-1.04-.602-.635-3.196 1.345-5.067 1.204-1.138 2.768-2.19 3.796-2.835.23-.142.58-.35.995-.602.066-.044.11-.066.11-.066.076-.043.164-.098.251-.153.733 2.67.033 5.013-1.662 6.863Zm11.759-8.001c-.558 1.368-1.74 4.881-2.45 4.684-.613-.164-.985-2.823-.121-5.45.437-1.325 1.367-2.9 1.914-3.513.886-.985 1.849-1.314 2.09-.909.284.526-1.083 4.334-1.433 5.188Zm9.702 4.64c-.24.121-.46.208-.558.143-.076-.044.098-.208.098-.208s1.215-1.302 1.696-1.904c.273-.35.602-.755.952-1.215v.131c0 1.576-1.51 2.627-2.188 3.054Zm7.482-1.707c-.175-.131-.153-.536.437-1.806.23-.503.755-1.346 1.663-2.145.11.328.175.646.164.941-.01 1.97-1.41 2.704-2.264 3.01Z"/></svg>